<svg width="154" height="102" viewBox="0 0 154 102" fill="none" xmlns="http://www.w3.org/2000/svg">
<path fill-rule="evenodd" clip-rule="evenodd" d="M70.0117 1.39933C65.8047 3.22633 66.0957 5.94534 70.6377 7.24834C72.8307 7.87734 73.8227 8.72034 73.6187 9.78334C73.3937 10.9583 71.6117 11.5513 66.8257 12.0423C53.5087 13.4093 38.5477 18.3823 27.3737 25.1553C21.9017 28.4713 20.2097 30.0723 19.4787 32.6263C18.7287 35.2453 18.0317 35.8763 15.8897 35.8763C11.4067 35.8763 3.33369 40.5393 1.31069 44.2973C-0.404308 47.4803 -0.414309 47.8433 1.15169 50.2323C2.70469 52.6033 7.99669 54.8573 12.0407 54.8703C12.9777 54.8733 14.8687 55.3893 16.2437 56.0153C19.5197 57.5083 34.2167 55.6873 40.1797 53.0493C42.5297 52.0093 46.9007 48.9853 49.8927 46.3273C54.1457 42.5503 55.4047 41.8643 55.6587 43.1853C55.8377 44.1143 55.0577 46.0533 53.9247 47.4933C52.7917 48.9333 52.1107 50.5083 52.4107 50.9943C53.2407 52.3373 58.9497 52.0493 64.4287 50.3873C70.3647 48.5863 75.1567 48.4193 74.6197 50.0313C74.4077 50.6673 71.2197 52.3513 67.5357 53.7743C63.8517 55.1963 60.8377 56.7013 60.8377 57.1183C60.8377 57.5353 63.9877 57.8763 67.8377 57.8763C77.9107 57.8763 76.7837 59.9433 65.0877 62.9183C62.1997 63.6533 59.8377 64.5673 59.8377 64.9503C59.8377 65.3323 62.4257 65.9983 65.5877 66.4303C72.6607 67.3953 73.3607 67.2453 44.9797 70.8183C32.1327 72.4353 21.4157 73.9653 21.1627 74.2183C20.1407 75.2393 26.0287 84.9093 30.2317 89.1123C39.7367 98.6173 51.3157 101.203 84.8377 101.306C103.854 101.365 108.117 101.104 112.37 99.6183C118.751 97.3893 124.316 92.8193 126.959 87.6393L129.022 83.5953L126.68 84.3303C117.142 87.3253 106.781 89.0163 95.3377 89.4473L82.3377 89.9353L87.6577 87.8103C90.5847 86.6403 92.7207 85.4253 92.4047 85.1103C92.0887 84.7943 88.4247 84.4453 84.2627 84.3343C74.0737 84.0633 73.2357 82.7323 81.8547 80.5113C85.6957 79.5223 88.8377 78.3353 88.8377 77.8743C88.8377 77.4133 85.8007 76.7383 82.0877 76.3753C74.1887 75.6033 71.8377 75.0433 71.8377 73.9343C71.8377 72.7093 77.2737 71.8763 85.2717 71.8763C89.6647 71.8763 93.1607 71.3603 94.2707 70.5483C95.9577 69.3153 95.8267 69.0673 92.4387 67.0683C86.0667 63.3093 86.1127 59.4783 92.4907 62.6493C99.3977 66.0833 106.058 67.3763 116.838 67.3763C126.125 67.3763 128.467 66.9903 137.113 64.0353C148.717 60.0693 153.838 56.0503 153.838 50.9083C153.838 46.4193 148.506 41.1663 143.068 40.2973C139.203 39.6793 139.004 39.4663 138.376 35.2793C137.748 31.0923 137.376 30.6943 129.647 25.9383C117.381 18.3893 97.5217 11.8763 86.7727 11.8763C83.6067 11.8763 82.8377 11.5133 82.8377 10.0213C82.8377 8.78533 83.9237 7.85433 86.0877 7.23333C88.3337 6.58933 89.3377 5.69534 89.3377 4.33934C89.3377 0.418335 76.6957 -1.50367 70.0117 1.39933ZM17.8377 45.3763C17.8377 49.4863 17.6257 49.8763 15.3847 49.8763C7.85469 49.8763 5.33069 44.4013 11.8377 42.1823C17.4747 40.2603 17.8377 40.4533 17.8377 45.3763ZM146.638 47.0763C149.738 50.1763 147.124 54.5383 141.088 56.3393C138.944 56.9793 138.838 56.7493 138.838 51.4433V45.8763H142.138C143.953 45.8763 145.978 46.4163 146.638 47.0763Z" fill="#FFDAB9"/>
</svg>
